<svg width="40" height="40" fill="none" xmlns="http://www.w3.org/2000/svg"><path d="M36.484 6.527H3.516A3.52 3.52 0 000 10.042v19.915a3.52 3.52 0 003.516 3.516h32.968A3.52 3.52 0 0040 29.957V10.042a3.52 3.52 0 00-3.516-3.515zm-23.017 22.42c-4.933 0-8.946-4.014-8.946-8.947 0-4.933 4.013-8.946 8.946-8.946s8.946 4.013 8.946 8.946-4.013 8.946-8.946 8.946zm13.475-12.28v9.954a1.172 1.172 0 01-2.343 0v-9.955a1.172 1.172 0 010-2.16v-.868a1.172 1.172 0 012.343 0v.868a1.172 1.172 0 010 2.16zm4.255 8.514v1.44a1.172 1.172 0 01-2.344 0v-1.44a1.172 1.172 0 010-2.16v-9.383a1.172 1.172 0 012.344 0v9.383a1.172 1.172 0 010 2.16zm4.255-8.515v9.955a1.172 1.172 0 01-2.344 0v-9.955a1.172 1.172 0 010-2.16v-.868a1.172 1.172 0 012.344 0v.868a1.172 1.172 0 010 2.16z" fill="#DB841D"/><path d="M13.467 16.618A3.386 3.386 0 0010.085 20a3.386 3.386 0 003.382 3.382A3.386 3.386 0 0016.85 20a3.386 3.386 0 00-3.383-3.382zm0 4.42a1.04 1.04 0 010-2.076 1.04 1.04 0 010 2.077z" fill="#DB841D"/></svg>