<svg width="40" height="40" fill="none" xmlns="http://www.w3.org/2000/svg"><path d="M5.86 7.11H1.171a1.171 1.171 0 100 2.343h1.172v4.688h2.344V9.453h1.171a1.171 1.171 0 100-2.344zm30.624 7.03h-1.172V9.238a3.51 3.51 0 002.344-3.3 3.52 3.52 0 00-3.515-3.515 3.52 3.52 0 00-3.516 3.515 3.51 3.51 0 002.344 3.3v4.904h-1.172a1.171 1.171 0 100 2.343h1.172v2.344h2.343v-2.344h1.172a1.171 1.171 0 100-2.343zm1.172 7.032H8.203a2.347 2.347 0 01-2.344-2.344v-1.172c0-.647-.524-1.172-1.171-1.172H2.344c-.648 0-1.172.524-1.172 1.172v1.172a7.039 7.039 0 007.031 7.031h3.883c1.118 6.649 6.885 11.72 13.851 11.72C33.705 37.578 40 31.281 40 23.515a2.344 2.344 0 00-2.344-2.344zM27.11 14.14h-1.172V9.238a3.51 3.51 0 002.343-3.3 3.52 3.52 0 00-3.515-3.515 3.52 3.52 0 00-3.516 3.515 3.51 3.51 0 002.344 3.3v4.904h-1.172a1.171 1.171 0 100 2.343h1.172v2.344h2.343v-2.344h1.172a1.171 1.171 0 100-2.343z" fill="#FC5252"/><path d="M17.734 14.14h-1.172V9.238a3.51 3.51 0 002.344-3.3 3.52 3.52 0 00-3.515-3.515 3.52 3.52 0 00-3.516 3.515 3.51 3.51 0 002.344 3.3v4.904h-1.172a1.171 1.171 0 100 2.343h1.172v2.344h2.344v-2.344h1.171a1.171 1.171 0 100-2.343z" fill="#FC5252"/></svg>