<svg width="40" height="40" fill="none" xmlns="http://www.w3.org/2000/svg"><g clip-path="url(#clip0_893_960)" fill="#fff"><path d="M37.656 14.141H25.859a2.344 2.344 0 100 4.687h11.797a2.344 2.344 0 100-4.687z"/><path d="M37.656 21.172H25.859v3.42a3.613 3.613 0 01-3.606 3.611c-1.713 0-3.2-1.217-3.531-2.87L14.946 5.084A6.333 6.333 0 007.116.208C4.354.92 2.423 3.524 2.423 6.544v5.254h-1.25a1.171 1.171 0 100 2.344h4.766c.647 0 1.172-.525 1.172-1.172V8.204a1.172 1.172 0 112.343 0v8.281H8.282a1.171 1.171 0 100 2.344h1.171v2.343H8.282a1.171 1.171 0 100 2.344h1.171v2.344H8.282a1.171 1.171 0 100 2.344h1.382C10.782 34.852 16.55 40 23.515 40h.021l.411-.007c7.516-.224 13.709-6.87 13.709-14.722v-4.099z"/></g><defs><clipPath id="clip0_893_960"><path fill="#fff" d="M0 0h40v40H0z"/></clipPath></defs></svg>