<svg width="30" height="30" fill="none" xmlns="http://www.w3.org/2000/svg"><path d="M27.702 7.07c-.954.422-1.966.7-3.002.823A5.245 5.245 0 0027 5a10.448 10.448 0 01-3.32 1.269 5.228 5.228 0 00-8.908 4.767A14.842 14.842 0 013.997 5.574a5.21 5.21 0 00-.707 2.629c0 1.812.922 3.413 2.325 4.35a5.21 5.21 0 01-2.368-.653v.065a5.231 5.231 0 004.194 5.126c-.77.21-1.578.24-2.362.09a5.231 5.231 0 004.883 3.632 10.494 10.494 0 01-7.738 2.165 14.789 14.789 0 008.012 2.35c9.616 0 14.875-7.967 14.875-14.875 0-.225-.006-.453-.016-.675a10.619 10.619 0 002.609-2.707h-.002z" fill="#fff"/></svg>