<svg width="431" height="431" fill="none" xmlns="http://www.w3.org/2000/svg"><path d="M215.5 35.917c48.793 0 54.881.18 74.024 1.077 19.126.898 32.146 3.897 43.603 8.35 11.853 4.562 21.838 10.74 31.822 20.707a88.13 88.13 0 0120.706 31.822c4.436 11.439 7.453 24.477 8.351 43.603.844 19.143 1.077 25.231 1.077 74.024s-.179 54.881-1.077 74.024c-.898 19.126-3.915 32.146-8.351 43.603a87.685 87.685 0 01-20.706 31.822 88.258 88.258 0 01-31.822 20.706c-11.439 4.436-24.477 7.453-43.603 8.351-19.143.844-25.231 1.077-74.024 1.077s-54.881-.179-74.024-1.077c-19.126-.898-32.146-3.915-43.603-8.351a87.814 87.814 0 01-31.822-20.706 88.057 88.057 0 01-20.706-31.822c-4.454-11.439-7.453-24.477-8.35-43.603-.845-19.143-1.078-25.231-1.078-74.024s.18-54.881 1.077-74.024c.898-19.144 3.897-32.146 8.35-43.603a87.637 87.637 0 0120.707-31.822 87.943 87.943 0 0131.822-20.706c11.457-4.454 24.459-7.453 43.603-8.35 19.143-.845 25.231-1.078 74.024-1.078zm0 89.791a89.792 89.792 0 10.003 179.585 89.792 89.792 0 00-.003-179.585zm116.729-4.489a22.447 22.447 0 00-38.321-15.873 22.447 22.447 0 0015.873 38.321 22.445 22.445 0 0022.448-22.448zM215.5 161.625a53.873 53.873 0 0138.095 91.97 53.87 53.87 0 01-76.19 0 53.87 53.87 0 010-76.19 53.873 53.873 0 0138.095-15.78z" fill="#FC5252" opacity=".1"/></svg>