<svg width="40" height="40" fill="none" xmlns="http://www.w3.org/2000/svg"><g clip-path="url(#clip0_893_972)" fill="#C00096"><path d="M23.884 12.782l1.637-1.637 3.381 3.381-1.637 1.637-3.381-3.381zm-3.274 3.274l1.637-1.637 3.38 3.381-1.636 1.637-3.382-3.381zM29.463 5.19a.385.385 0 00-.19.498l.015.036.393 1.268c-.021.019-.042.037-.062.058l-2.456 2.456 3.381 3.381 2.457-2.456a1.55 1.55 0 00.078-.084l1.27.393c.181.057.38-.03.462-.203 1.593-3.348 4.825-4.9 4.966-4.967a.388.388 0 00.182-.525l-1.627-3.199a.382.382 0 00-.17-.169L35.01.074l-.027-.017a.385.385 0 00-.552.167c-.016.033-1.587 3.356-4.968 4.966z"/><path d="M20.88 30.237a1.43 1.43 0 011.075-1.49 6.537 6.537 0 004.506-3.883 1.157 1.157 0 00-1.548-1.492c-1.177.53-2.766.24-4.165-.688l1.61-1.61-3.382-3.382-1.02 1.02c-.224-1.12-.024-2.174.657-2.855.196-.196.427-.356.685-.478a1.158 1.158 0 00-.235-2.177 6.529 6.529 0 00-6.076 1.728 6.537 6.537 0 00-1.755 3.113c-.16.665-.787 1.117-1.49 1.075a9.355 9.355 0 00-7.173 2.71c-3.425 3.426-3.425 9 0 12.425l3.178 3.178c3.426 3.426 9 3.426 12.425 0a9.352 9.352 0 002.709-7.194zm-9.042.366l-2.44-2.44a1.158 1.158 0 011.637-1.638l2.44 2.44a1.158 1.158 0 01-1.637 1.638zm3.66-3.66l-2.44-2.44a1.158 1.158 0 111.637-1.638l2.44 2.44a1.158 1.158 0 01-1.637 1.637z"/></g><defs><clipPath id="clip0_893_972"><path fill="#fff" d="M0 0h40v40H0z"/></clipPath></defs></svg>