<svg width="40" height="40" fill="none" xmlns="http://www.w3.org/2000/svg"><g clip-path="url(#clip0_893_984)"><path d="M39.489 12.298L27.702.511a1.744 1.744 0 00-2.971 1.1l-.933 12.125-6.009 6.01-1.714-1.715a1.744 1.744 0 00-2.465 2.466l1.714 1.714-3.428 3.427-1.714-1.713a1.743 1.743 0 10-2.466 2.465l1.714 1.714-6.214 6.214-.24-.24A1.744 1.744 0 00.51 36.543l1.474 1.474 1.473 1.473c.34.34.787.51 1.233.51a1.743 1.743 0 001.233-2.976l-.241-.24 3.634-3.634c.292.772.746 1.48 1.347 2.08a5.873 5.873 0 004.18 1.732 5.872 5.872 0 004.179-1.732l5.894-5.893a5.918 5.918 0 00-2.08-9.707l3.428-3.428 12.126-.933a1.743 1.743 0 001.099-2.97zM22.45 26.871l-5.894 5.894a2.407 2.407 0 01-1.713.71 2.408 2.408 0 01-1.714-.71 2.408 2.408 0 01-.71-1.714c0-.647.252-1.256.71-1.714l5.896-5.896a2.408 2.408 0 011.711-.707c.648 0 1.257.252 1.714.71a2.427 2.427 0 010 3.427z" fill="#84C4FF"/></g><defs><clipPath id="clip0_893_984"><path fill="#fff" d="M0 0h40v40H0z"/></clipPath></defs></svg>