<svg width="30" height="30" fill="none" xmlns="http://www.w3.org/2000/svg"><path d="M15 2.5c3.396 0 3.82.013 5.152.075 1.332.063 2.238.271 3.035.581a6.1 6.1 0 012.215 1.442 6.137 6.137 0 011.442 2.215c.308.796.518 1.703.581 3.035.059 1.332.075 1.756.075 5.152s-.012 3.82-.075 5.152c-.063 1.332-.273 2.238-.581 3.035a6.105 6.105 0 01-1.442 2.215 6.144 6.144 0 01-2.215 1.442c-.796.308-1.703.518-3.035.581-1.332.059-1.756.075-5.152.075s-3.82-.012-5.152-.075c-1.332-.063-2.238-.273-3.036-.581a6.113 6.113 0 01-2.215-1.442 6.13 6.13 0 01-1.44-2.215c-.31-.796-.52-1.703-.582-3.035C2.516 18.82 2.5 18.396 2.5 15s.013-3.82.075-5.152c.063-1.333.271-2.238.581-3.036a6.1 6.1 0 011.442-2.215 6.121 6.121 0 012.215-1.44c.797-.31 1.702-.52 3.035-.582C11.18 2.516 11.604 2.5 15 2.5zm0 6.25a6.25 6.25 0 100 12.5 6.25 6.25 0 000-12.5zm8.125-.313a1.563 1.563 0 10-3.125 0 1.563 1.563 0 003.125 0zM15 11.25a3.75 3.75 0 110 7.5 3.75 3.75 0 010-7.5z" fill="#fff"/></svg>