<svg width="30" height="30" fill="none" xmlns="http://www.w3.org/2000/svg"><path d="M22.919 22.924h-3.332v-5.221c0-1.245-.024-2.848-1.737-2.848-1.736 0-2.001 1.355-2.001 2.756v5.313h-3.333V12.188h3.2v1.462h.044c.447-.843 1.535-1.734 3.16-1.734 3.375 0 4 2.223 4 5.114v5.894h-.001zM8.754 10.719a1.931 1.931 0 01-1.935-1.936 1.935 1.935 0 111.933 1.936h.002zm1.67 12.205H7.083V12.188h3.342v10.736h-.001zM24.587 3.75H5.412c-.92 0-1.661.725-1.661 1.621V24.63c0 .896.742 1.621 1.66 1.621h19.172c.918 0 1.668-.725 1.668-1.621V5.37c0-.896-.75-1.621-1.668-1.621h.006z" fill="#fff"/></svg>