<?xml version="1.0" encoding="iso-8859-1"?>
<!-- Generator: Adobe Illustrator 19.0.0, SVG Export Plug-In . SVG Version: 6.00 Build 0)  -->
<svg version="1.1" id="globe" xmlns="http://www.w3.org/2000/svg" xmlns:xlink="http://www.w3.org/1999/xlink" x="0px" y="0px"
	 viewBox="0 0 512 512" style="enable-background:new 0 0 512 512;" xml:space="preserve">
<g>
	<g>
		<path d="M315.065,55.887c-15.706-23.128-31.52-42.081-44.041-55.83v120.884c27.044-1.891,51.274-8.723,72.207-17.647
			C334.07,85.439,324.305,69.493,315.065,55.887z"/>
	</g>
</g>
<g>
	<g>
		<path d="M316.113,6.653c7.52,9.456,15.411,20.03,23.316,31.628c11.538,16.929,21.799,34.158,30.732,51.539
			c20.253-11.685,35.925-24.366,46.291-33.84C386.84,32.133,352.692,15.4,316.113,6.653z"/>
	</g>
</g>
<g>
	<g>
		<path d="M355.975,130.51c-27.443,11.778-56.105,18.731-84.951,20.528v89.177h111.524
			C380.279,200.122,369.71,162.954,355.975,130.51z"/>
	</g>
</g>
<g>
	<g>
		<path d="M271.024,270.262v90.9c28.86,1.799,57.533,8.755,84.986,20.542c13.925-32.915,24.582-70.69,26.626-111.443H271.024z"/>
	</g>
</g>
<g>
	<g>
		<path d="M196.935,55.887c-9.263,13.64-19.053,29.632-28.235,47.541c23.44,9.968,47.602,15.829,72.276,17.518V0.056
			C228.455,13.806,212.638,32.761,196.935,55.887z"/>
	</g>
</g>
<g>
	<g>
		<path d="M156.003,130.565c-13.724,32.431-24.283,69.58-26.55,109.65h111.524v-89.177
			C212.16,149.244,183.492,142.311,156.003,130.565z"/>
	</g>
</g>
<g>
	<g>
		<path d="M129.364,270.263c2.043,40.717,12.68,78.465,26.605,111.388c27.499-11.754,56.18-18.694,85.007-20.489v-90.899H129.364z"
			/>
	</g>
</g>
<g>
	<g>
		<path d="M95.271,56.203c8.051,7.297,19.178,16.432,33.018,25.501c4.457,2.92,8.948,5.672,13.47,8.272
			c8.951-17.435,19.24-34.715,30.812-51.696c7.905-11.599,15.796-22.172,23.316-31.628C159.194,15.428,124.946,32.237,95.271,56.203
			z"/>
	</g>
</g>
<g>
	<g>
		<path d="M110.897,106.229C94.72,95.544,81.947,84.856,72.923,76.503C29.324,120.952,3.813,178.502,0.092,240.215H99.36
			c1.779-35.093,9.402-70.708,22.744-106.098c2.126-5.639,4.406-11.274,6.82-16.9C122.831,113.798,116.816,110.139,110.897,106.229z
			"/>
	</g>
</g>
<g>
	<g>
		<path d="M122.105,378.181c-13.573-36.002-21.225-72.237-22.829-107.919H0c3.397,62.335,29.014,120.505,73.036,165.33
			c9.017-8.337,21.753-18.98,37.862-29.62c5.909-3.903,11.912-7.556,17.993-10.971C126.49,389.401,124.221,383.793,122.105,378.181z
			"/>
	</g>
</g>
<g>
	<g>
		<path d="M412.725,270.262L412.725,270.262c-1.604,35.682-9.256,71.916-22.829,107.919c-2.13,5.649-4.414,11.294-6.833,16.93
			c5.999,3.388,11.919,7.011,17.746,10.88c16.181,10.742,28.927,21.486,37.9,29.862c44.179-44.86,69.887-103.135,73.291-165.592
			H412.725z"/>
	</g>
</g>
<g>
	<g>
		<path d="M438.822,76.241c-8.98,8.392-21.763,19.182-38.013,29.968c-5.838,3.875-11.769,7.504-17.78,10.898
			c2.431,5.664,4.727,11.335,6.867,17.01c13.342,35.39,20.965,71.004,22.744,106.098h99.269
			C508.18,178.381,482.577,120.727,438.822,76.241z"/>
	</g>
</g>
<g>
	<g>
		<path d="M383.355,430.472c-4.344-2.86-8.724-5.559-13.132-8.112c-8.946,17.422-19.229,34.69-30.793,51.659
			c-7.798,11.442-15.58,21.879-23.008,31.236c36.41-8.755,70.404-25.426,99.902-49.152
			C408.321,448.788,397.212,439.596,383.355,430.472z"/>
	</g>
</g>
<g>
	<g>
		<path d="M271.024,391.255v120.689c0.095-0.005,0.19-0.012,0.286-0.017c12.475-13.723,28.169-32.561,43.756-55.514
			c9.267-13.649,19.063-29.651,28.249-47.572C319.906,398.833,295.739,392.949,271.024,391.255z"/>
	</g>
</g>
<g>
	<g>
		<path d="M172.571,474.018c-11.589-17.004-21.892-34.31-30.851-51.771c-4.508,2.594-8.987,5.338-13.431,8.25
			c-13.766,9.02-24.848,18.106-32.889,25.384c29.562,23.843,63.655,40.591,100.179,49.373
			C188.151,495.897,180.369,485.459,172.571,474.018z"/>
	</g>
</g>
<g>
	<g>
		<path d="M240.976,391.254c-24.69,1.691-48.865,7.557-72.318,17.536c9.335,18.216,19.31,34.465,28.742,48.304
			c15.47,22.696,30.944,41.271,43.268,54.83c0.103,0.006,0.206,0.013,0.309,0.019L240.976,391.254L240.976,391.254z"/>
	</g>
</g>
<g>
</g>
<g>
</g>
<g>
</g>
<g>
</g>
<g>
</g>
<g>
</g>
<g>
</g>
<g>
</g>
<g>
</g>
<g>
</g>
<g>
</g>
<g>
</g>
<g>
</g>
<g>
</g>
<g>
</g>
</svg>
